<?xml version="1.0" encoding="UTF-8" standalone="no" ?>
<!DOCTYPE svg PUBLIC "-//W3C//DTD SVG 1.1//EN" "http://www.w3.org/Graphics/SVG/1.1/DTD/svg11.dtd">
<svg width="149mm" xmlns="http://www.w3.org/2000/svg" height="119mm" version="1.1" viewBox="0 0 564 450" xmlns:xlink="http://www.w3.org/1999/xlink">
   <defs>
      <linearGradient id="Gradient1" x1="0%" x2="100%" y1="0%" y2="100%" gradientUnits="objectBoundingBox">
         <stop offset="5%" stop-color="#c8d8f8"/>
         <stop offset="95%" stop-color="#f2f2ff"/>
      </linearGradient>
   </defs>
   <rect x="15" y="328" fill="url(#Gradient1)" width="534" height="107" stroke="none" stroke-width="0"/>
   <polyline fill="none" points="15,328 549,328" stroke="#000000" stroke-width="1"/>
   <line x1="15" x2="15" y1="328" y2="435" stroke="#000000" stroke-width="1"/>
   <line x1="15" x2="549" y1="435" y2="435" stroke="#000000" stroke-width="1"/>
   <line x1="549" x2="549" y1="328" y2="435" stroke="#000000" stroke-width="1"/>
   <line x1="42" x2="42" y1="328" y2="435" stroke="#000000" stroke-width="1"/>
   <text x="25" y="381" fill="#000000" font-size="10" transform="rotate(270,28,381)" font-family="'Arial Unicode MS','Arial Unicode MS'" text-anchor="middle" glyph-orientation-vertical="270">OrganizationUnit_1</text>
   <a target="_parent" xlink:href="Mult72.htm#4">
      <defs>
         <linearGradient id="Gradient2" x1="0%" x2="100%" y1="0%" y2="100%" gradientUnits="objectBoundingBox">
            <stop offset="5%" stop-color="#c8d8f8"/>
            <stop offset="95%" stop-color="#f2f2ff"/>
         </linearGradient>
      </defs>
      <rect x="15" y="328" fill="url(#Gradient2)" width="534" height="107" stroke="none" stroke-width="0"/>
      <polyline fill="none" points="15,328 549,328" stroke="#000000" stroke-width="1"/>
      <line x1="15" x2="15" y1="328" y2="435" stroke="#000000" stroke-width="1"/>
      <line x1="15" x2="549" y1="435" y2="435" stroke="#000000" stroke-width="1"/>
      <line x1="549" x2="549" y1="328" y2="435" stroke="#000000" stroke-width="1"/>
      <line x1="42" x2="42" y1="328" y2="435" stroke="#000000" stroke-width="1"/>
      <text x="25" y="381" fill="#000000" font-size="10" transform="rotate(270,28,381)" font-family="'Arial Unicode MS','Arial Unicode MS'" text-anchor="middle" glyph-orientation-vertical="270">OrganizationUnit_1</text>
   </a>
   <defs>
      <linearGradient id="Gradient3" x1="0%" x2="100%" y1="0%" y2="100%" gradientUnits="objectBoundingBox">
         <stop offset="5%" stop-color="#c8d8f8"/>
         <stop offset="95%" stop-color="#f2f2ff"/>
      </linearGradient>
   </defs>
   <rect x="15" y="165" fill="url(#Gradient3)" width="534" height="107" stroke="none" stroke-width="0"/>
   <polyline fill="none" points="15,165 549,165" stroke="#000000" stroke-width="1"/>
   <line x1="15" x2="15" y1="165" y2="272" stroke="#000000" stroke-width="1"/>
   <line x1="15" x2="549" y1="272" y2="272" stroke="#000000" stroke-width="1"/>
   <line x1="549" x2="549" y1="165" y2="272" stroke="#000000" stroke-width="1"/>
   <line x1="42" x2="42" y1="165" y2="272" stroke="#000000" stroke-width="1"/>
   <text x="25" y="218" fill="#000000" font-size="10" transform="rotate(270,28,218)" font-family="'Arial Unicode MS','Arial Unicode MS'" text-anchor="middle" glyph-orientation-vertical="270">OrganizationUnit_2</text>
   <defs>
      <linearGradient id="Gradient4" x1="0%" x2="100%" y1="0%" y2="100%" gradientUnits="objectBoundingBox">
         <stop offset="5%" stop-color="#ffffff"/>
         <stop offset="95%" stop-color="#c0ffff"/>
      </linearGradient>
   </defs>
   <rect x="110" y="177" rx="3" ry="3" fill="url(#Gradient4)" width="80" height="27" stroke="#8080ff" stroke-width="1"/>
   <text x="150" y="193" fill="#000000" font-size="10" font-family="'Arial Unicode MS','Arial Unicode MS'" text-anchor="middle">Process_2</text>
   <a target="_parent" xlink:href="Mult73.htm#7">
      <defs>
         <linearGradient id="Gradient5" x1="0%" x2="100%" y1="0%" y2="100%" gradientUnits="objectBoundingBox">
            <stop offset="5%" stop-color="#c8d8f8"/>
            <stop offset="95%" stop-color="#f2f2ff"/>
         </linearGradient>
      </defs>
      <rect x="15" y="165" fill="url(#Gradient5)" width="534" height="107" stroke="none" stroke-width="0"/>
      <polyline fill="none" points="15,165 549,165" stroke="#000000" stroke-width="1"/>
      <line x1="15" x2="15" y1="165" y2="272" stroke="#000000" stroke-width="1"/>
      <line x1="15" x2="549" y1="272" y2="272" stroke="#000000" stroke-width="1"/>
      <line x1="549" x2="549" y1="165" y2="272" stroke="#000000" stroke-width="1"/>
      <line x1="42" x2="42" y1="165" y2="272" stroke="#000000" stroke-width="1"/>
      <text x="25" y="218" fill="#000000" font-size="10" transform="rotate(270,28,218)" font-family="'Arial Unicode MS','Arial Unicode MS'" text-anchor="middle" glyph-orientation-vertical="270">OrganizationUnit_2</text>
   </a>
   <polyline fill="none" points="136,72 136,127 128,127 128,177" stroke="#0080c0" stroke-width="1"/>
   <polygon fill="#0080c0" points="128,177 125,164 131,164" stroke="#0080c0" stroke-width="1" stroke-linejoin="miter"/>
   <defs>
      <linearGradient id="Gradient6" x1="0%" x2="100%" y1="0%" y2="100%" gradientUnits="objectBoundingBox">
         <stop offset="5%" stop-color="#ffffff"/>
         <stop offset="95%" stop-color="#c0ffff"/>
      </linearGradient>
   </defs>
   <rect x="110" y="177" rx="3" ry="3" fill="url(#Gradient6)" width="80" height="27" stroke="#8080ff" stroke-width="1"/>
   <text x="150" y="193" fill="#000000" font-size="10" font-family="'Arial Unicode MS','Arial Unicode MS'" text-anchor="middle">Process_2</text>
   <a target="_parent" xlink:href="Mult76.htm#12">
      <defs>
         <linearGradient id="Gradient7" x1="0%" x2="100%" y1="0%" y2="100%" gradientUnits="objectBoundingBox">
            <stop offset="5%" stop-color="#ffffff"/>
            <stop offset="95%" stop-color="#c0ffff"/>
         </linearGradient>
      </defs>
      <rect x="110" y="177" rx="3" ry="3" fill="url(#Gradient7)" width="80" height="27" stroke="#8080ff" stroke-width="1"/>
      <text x="150" y="193" fill="#000000" font-size="10" font-family="'Arial Unicode MS','Arial Unicode MS'" text-anchor="middle">Process_2</text>
   </a>
   <defs>
      <linearGradient id="Gradient8" x1="0%" x2="100%" y1="0%" y2="100%" gradientUnits="objectBoundingBox">
         <stop offset="5%" stop-color="#c8d8f8"/>
         <stop offset="95%" stop-color="#f2f2ff"/>
      </linearGradient>
   </defs>
   <rect x="15" y="15" fill="url(#Gradient8)" width="534" height="107" stroke="none" stroke-width="0"/>
   <polyline fill="none" points="15,15 549,15" stroke="#000000" stroke-width="1"/>
   <line x1="15" x2="15" y1="15" y2="122" stroke="#000000" stroke-width="1"/>
   <line x1="15" x2="549" y1="122" y2="122" stroke="#000000" stroke-width="1"/>
   <line x1="549" x2="549" y1="15" y2="122" stroke="#000000" stroke-width="1"/>
   <line x1="42" x2="42" y1="15" y2="122" stroke="#000000" stroke-width="1"/>
   <text x="25" y="68" fill="#000000" font-size="10" transform="rotate(270,28,68)" font-family="'Arial Unicode MS','Arial Unicode MS'" text-anchor="middle" glyph-orientation-vertical="270">OrganizationUnit_3</text>
   <polyline fill="none" points="69,58 82,58 82,59 96,59" stroke="#0080c0" stroke-width="1"/>
   <polygon fill="#0080c0" points="96,59 83,62 83,56" stroke="#0080c0" stroke-width="1" stroke-linejoin="miter"/>
   <defs>
      <radialGradient r="8" cx="61" cy="58" fx="61" fy="58" id="Gradient9" gradientUnits="userSpaceOnUse">
         <stop offset="5%" stop-color="#c0c0c0"/>
         <stop offset="85%" stop-color="#0080c0"/>
      </radialGradient>
   </defs>
   <ellipse cx="61" cy="58" rx="8" ry="8" fill="url(#Gradient9)" stroke="#0080c0" stroke-width="1"/>
   <defs>
      <linearGradient id="Gradient10" x1="0%" x2="100%" y1="0%" y2="100%" gradientUnits="objectBoundingBox">
         <stop offset="5%" stop-color="#ffffff"/>
         <stop offset="95%" stop-color="#c0ffff"/>
      </linearGradient>
   </defs>
   <rect x="96" y="44" rx="3" ry="3" fill="url(#Gradient10)" width="80" height="27" stroke="#8080ff" stroke-width="1"/>
   <text x="136" y="60" fill="#000000" font-size="10" font-family="'Arial Unicode MS','Arial Unicode MS'" text-anchor="middle">Черновик</text>
   <a target="_parent" xlink:href="Mult74.htm#12">
      <defs>
         <linearGradient id="Gradient11" x1="0%" x2="100%" y1="0%" y2="100%" gradientUnits="objectBoundingBox">
            <stop offset="5%" stop-color="#c8d8f8"/>
            <stop offset="95%" stop-color="#f2f2ff"/>
         </linearGradient>
      </defs>
      <rect x="15" y="15" fill="url(#Gradient11)" width="534" height="107" stroke="none" stroke-width="0"/>
      <polyline fill="none" points="15,15 549,15" stroke="#000000" stroke-width="1"/>
      <line x1="15" x2="15" y1="15" y2="122" stroke="#000000" stroke-width="1"/>
      <line x1="15" x2="549" y1="122" y2="122" stroke="#000000" stroke-width="1"/>
      <line x1="549" x2="549" y1="15" y2="122" stroke="#000000" stroke-width="1"/>
      <line x1="42" x2="42" y1="15" y2="122" stroke="#000000" stroke-width="1"/>
      <text x="25" y="68" fill="#000000" font-size="10" transform="rotate(270,28,68)" font-family="'Arial Unicode MS','Arial Unicode MS'" text-anchor="middle" glyph-orientation-vertical="270">OrganizationUnit_3</text>
   </a>
   <polyline fill="none" points="69,58 82,58 82,59 96,59" stroke="#0080c0" stroke-width="1"/>
   <polygon fill="#0080c0" points="96,59 83,62 83,56" stroke="#0080c0" stroke-width="1" stroke-linejoin="miter"/>
   <polyline fill="none" points="136,72 136,127 128,127 128,177" stroke="#0080c0" stroke-width="1"/>
   <polygon fill="#0080c0" points="128,177 125,164 131,164" stroke="#0080c0" stroke-width="1" stroke-linejoin="miter"/>
   <polyline fill="none" points="69,58 82,58 82,59 96,59" stroke="#0080c0" stroke-width="1"/>
   <polygon fill="#0080c0" points="96,59 83,62 83,56" stroke="#0080c0" stroke-width="1" stroke-linejoin="miter"/>
   <defs>
      <radialGradient r="8" cx="61" cy="58" fx="61" fy="58" id="Gradient12" gradientUnits="userSpaceOnUse">
         <stop offset="5%" stop-color="#c0c0c0"/>
         <stop offset="85%" stop-color="#0080c0"/>
      </radialGradient>
   </defs>
   <ellipse cx="61" cy="58" rx="8" ry="8" fill="url(#Gradient12)" stroke="#0080c0" stroke-width="1"/>
   <defs>
      <linearGradient id="Gradient13" x1="0%" x2="100%" y1="0%" y2="100%" gradientUnits="objectBoundingBox">
         <stop offset="5%" stop-color="#ffffff"/>
         <stop offset="95%" stop-color="#c0ffff"/>
      </linearGradient>
   </defs>
   <rect x="96" y="44" rx="3" ry="3" fill="url(#Gradient13)" width="80" height="27" stroke="#8080ff" stroke-width="1"/>
   <text x="136" y="60" fill="#000000" font-size="10" font-family="'Arial Unicode MS','Arial Unicode MS'" text-anchor="middle">Черновик</text>
   <a target="_parent" xlink:href="Mult76.htm#7">
      <defs>
         <radialGradient r="8" cx="61" cy="58" fx="61" fy="58" id="Gradient14" gradientUnits="userSpaceOnUse">
            <stop offset="5%" stop-color="#c0c0c0"/>
            <stop offset="85%" stop-color="#0080c0"/>
         </radialGradient>
      </defs>
      <ellipse cx="61" cy="58" rx="8" ry="8" fill="url(#Gradient14)" stroke="#0080c0" stroke-width="1"/>
   </a>
   <a target="_parent" xlink:href="Mult76.htm#17">
      <defs>
         <linearGradient id="Gradient15" x1="0%" x2="100%" y1="0%" y2="100%" gradientUnits="objectBoundingBox">
            <stop offset="5%" stop-color="#ffffff"/>
            <stop offset="95%" stop-color="#c0ffff"/>
         </linearGradient>
      </defs>
      <rect x="96" y="44" rx="3" ry="3" fill="url(#Gradient15)" width="80" height="27" stroke="#8080ff" stroke-width="1"/>
      <text x="136" y="60" fill="#000000" font-size="10" font-family="'Arial Unicode MS','Arial Unicode MS'" text-anchor="middle">Черновик</text>
   </a>
   <polyline fill="none" points="136,72 136,127 128,127 128,177" stroke="#0080c0" stroke-width="1"/>
   <polygon fill="#0080c0" points="128,177 125,164 131,164" stroke="#0080c0" stroke-width="1" stroke-linejoin="miter"/>
</svg>
